<svg xmlns="http://www.w3.org/2000/svg" viewBox="0 0 200 80" width="200" height="80">
  <rect width="200" height="80" fill="#FFFFFF"/>
  <path fill="#EA4335" d="M60 30c2-4 5.5-6.5 9.5-6.5 4 0 7 1.5 9 4l-3.5 3.5c-1.5-1.5-3-2.5-5.5-2.5-3.5 0-6.5 2.5-7.5 6H60z"/>
  <path fill="#4285F4" d="M73 40c0 3.5-2 5.5-4.5 5.5-2 0-3.5-1-4.5-2.5l-3.5 3.5c2 2.5 5 4 8 4 6.5 0 11-4.5 11-10.5H73z"/>
  <path fill="#FBBC05" d="M59 36.5c0-1 .2-2 .5-2.5H60v-4H55c-1 2-1.5 4-1.5 6.5 0 2.5.5 4.5 1.5 6.5l4-3.5c-.3-.9-.5-1.9-.5-3z"/>
  <path fill="#34A853" d="M68.5 45.5c-3 0-5.5-1.5-7-3.5l-4 3.5c2.5 3 6 5 11 5 3.5 0 6.5-1 8.5-2.5l-3.5-3.5c-1.5 1-3 1-5 1z"/>
  <text x="100" y="38" font-family="Arial, sans-serif" font-size="12" font-weight="bold" fill="#4285F4" text-anchor="start">Cloud</text>
  <text x="100" y="52" font-family="Arial, sans-serif" font-size="9" fill="#5F6368" text-anchor="start">Skills Boost</text>
</svg>
